<svg width="214" height="143" viewBox="0 0 214 143" fill="none" xmlns="http://www.w3.org/2000/svg">
<g clip-path="url(#clip0_3285_31)">
<path d="M54.517 138.302H53.7402V139.821H52.9526V135.791H54.517C55.3478 135.791 55.8441 136.362 55.8441 137.052C55.8441 137.741 55.3478 138.312 54.517 138.312V138.302ZM54.4739 136.491H53.7402V137.591H54.4739C54.8299 137.591 55.0565 137.375 55.0565 137.041C55.0565 136.707 54.8299 136.491 54.4739 136.491Z" fill="#444445"/>
<path d="M58.9405 139.821L58.1529 138.215H57.5811V139.821H56.7935V135.791H58.3794C59.1994 135.791 59.6849 136.351 59.6849 137.03C59.6849 137.601 59.3397 137.946 58.9513 138.086L59.8575 139.821H58.9405ZM58.3255 136.491H57.5811V137.558H58.3255C58.6707 137.558 58.8973 137.343 58.8973 137.03C58.8973 136.718 58.6707 136.502 58.3255 136.502V136.491Z" fill="#444445"/>
<path d="M60.7852 139.821V135.791H63.4393V136.491H61.5728V137.44H63.1695V138.14H61.5728V139.121H63.4393V139.821H60.7852Z" fill="#444445"/>
<path d="M65.6187 139.853C65.0037 139.853 64.5398 139.724 64.1406 139.325L64.6477 138.819C64.9066 139.078 65.2519 139.164 65.6187 139.164C66.0826 139.164 66.3308 138.991 66.3308 138.668C66.3308 138.528 66.2876 138.409 66.2013 138.323C66.1258 138.248 66.0287 138.216 65.8453 138.183L65.3598 138.119C65.0145 138.065 64.7556 137.957 64.583 137.785C64.3888 137.591 64.2917 137.332 64.2917 136.987C64.2917 136.265 64.8203 135.77 65.6942 135.77C66.2553 135.77 66.6545 135.91 66.9997 136.244L66.5034 136.739C66.2445 136.491 65.9424 136.459 65.6727 136.459C65.2519 136.459 65.0469 136.696 65.0469 136.966C65.0469 137.063 65.0793 137.17 65.1656 137.257C65.2411 137.332 65.3706 137.397 65.5432 137.418L66.0179 137.483C66.3847 137.537 66.6221 137.634 66.7839 137.795C66.9997 138 67.0968 138.291 67.0968 138.647C67.0968 139.422 66.4495 139.864 65.5971 139.864L65.6187 139.853Z" fill="#444445"/>
<path d="M68.1436 139.821V135.791H70.7977V136.491H68.9312V137.44H70.5279V138.14H68.9312V139.121H70.7977V139.821H68.1436Z" fill="#444445"/>
<path d="M74.2394 139.821L72.6426 137.343V139.821H71.855V135.791H72.5563L74.153 138.259V135.791H74.9406V139.821H74.2394Z" fill="#444445"/>
<path d="M77.7131 136.491V139.821H76.9255V136.491H75.8682V135.791H78.7596V136.491H77.7023H77.7131Z" fill="#444445"/>
<path d="M79.6875 139.821V135.791H82.3416V136.491H80.4751V137.44H82.0719V138.14H80.4751V139.121H82.3416V139.821H79.6875Z" fill="#444445"/>
<path d="M85.9236 139.433C85.6538 139.702 85.2762 139.821 84.8554 139.821H83.3989V135.791H84.8554C85.2762 135.791 85.6538 135.91 85.9236 136.179C86.3767 136.631 86.3335 137.181 86.3335 137.795C86.3335 138.409 86.3767 138.991 85.9236 139.444V139.433ZM85.3733 136.739C85.2331 136.578 85.0604 136.491 84.7799 136.491H84.1865V139.121H84.7799C85.0496 139.121 85.2331 139.034 85.3733 138.873C85.5244 138.69 85.5459 138.399 85.5459 137.795C85.5459 137.192 85.5244 136.933 85.3733 136.75V136.739Z" fill="#444445"/>
<path d="M90.7139 139.821H89.02V135.791H90.6384C91.426 135.791 91.8899 136.233 91.8899 136.922C91.8899 137.364 91.5986 137.655 91.3936 137.752C91.6417 137.86 91.9438 138.118 91.9438 138.657C91.9438 139.412 91.426 139.821 90.7139 139.821ZM90.5844 136.491H89.8184V137.418H90.5844C90.9189 137.418 91.1023 137.235 91.1023 136.955C91.1023 136.675 90.9189 136.491 90.5844 136.491ZM90.6276 138.129H89.8076V139.121H90.6276C90.9836 139.121 91.1562 138.894 91.1562 138.625C91.1562 138.356 90.9836 138.129 90.6276 138.129Z" fill="#444445"/>
<path d="M94.5765 138.172V139.821H93.7997V138.172L92.5913 135.791H93.4436L94.1989 137.418L94.9433 135.791H95.7956L94.5873 138.172H94.5765Z" fill="#444445"/>
<path d="M119.769 135.598C119.92 135.598 120.049 135.716 120.049 135.878V141.244C120.049 141.395 119.909 141.513 119.769 141.513H119.035C118.895 141.513 118.765 141.405 118.765 141.255V140.759C118.399 141.298 117.762 141.675 116.834 141.675C115.291 141.675 114.342 140.651 114.342 139.132V135.867C114.342 135.716 114.482 135.598 114.622 135.598H115.356C115.507 135.598 115.626 135.716 115.626 135.867V138.927C115.626 139.918 116.144 140.565 117.169 140.565C118.194 140.565 118.765 139.886 118.765 138.938V135.867C118.765 135.716 118.906 135.598 119.035 135.598H119.769ZM109.023 132.624C106.531 132.624 104.513 134.563 104.513 137.149C104.513 139.735 106.531 141.675 109.023 141.675C109.455 141.675 109.865 141.621 110.253 141.513L110.738 142.774C110.792 142.914 110.889 143 111.073 143H111.85C112.033 143 112.173 142.882 112.087 142.645L111.451 140.996C112.702 140.209 113.533 138.819 113.533 137.16C113.533 134.574 111.515 132.634 109.023 132.634M110.987 139.768L110.415 138.291C110.361 138.173 110.264 138.054 110.048 138.054H109.303C109.12 138.054 108.969 138.173 109.055 138.41L109.8 140.349C109.552 140.414 109.293 140.446 109.012 140.446C107.189 140.446 105.883 139.013 105.883 137.138C105.883 135.263 107.178 133.83 109.012 133.83C110.846 133.83 112.141 135.263 112.141 137.138C112.141 138.227 111.699 139.164 110.976 139.757M161.026 141.222C161.091 141.373 161.015 141.513 160.832 141.513H160.012C159.861 141.513 159.742 141.438 159.688 141.287L158.178 137.235L156.646 141.287C156.581 141.449 156.473 141.513 156.322 141.513H155.588C155.437 141.513 155.329 141.449 155.265 141.287L153.722 137.214L152.201 141.287C152.136 141.438 152.028 141.513 151.877 141.513H151.111C150.96 141.513 150.852 141.438 150.787 141.287L149.277 137.214L147.723 141.287C147.658 141.449 147.551 141.513 147.399 141.513H146.666C146.515 141.513 146.407 141.449 146.342 141.287L144.821 137.214L143.3 141.287C143.246 141.438 143.127 141.513 142.976 141.513H142.188C142.005 141.513 141.929 141.362 141.994 141.222L144.055 135.835C144.12 135.673 144.228 135.598 144.379 135.598H145.263C145.414 135.598 145.522 135.673 145.587 135.835L147.043 139.768L148.511 135.835C148.575 135.673 148.683 135.598 148.834 135.598H149.708C149.859 135.598 149.967 135.673 150.032 135.835L151.489 139.768L152.945 135.835C153.01 135.673 153.118 135.598 153.269 135.598H154.143C154.294 135.598 154.402 135.673 154.466 135.835L155.944 139.768L157.39 135.835C157.455 135.673 157.563 135.598 157.714 135.598H158.598C158.75 135.598 158.857 135.673 158.922 135.835L160.983 141.222M126.836 135.598H126.102C125.951 135.598 125.821 135.716 125.821 135.878V136.373C125.455 135.813 124.732 135.425 123.879 135.425C122.272 135.425 120.891 136.697 120.891 138.55C120.891 140.403 122.272 141.686 123.869 141.686C124.732 141.686 125.433 141.287 125.821 140.737V141.255C125.821 141.405 125.962 141.524 126.102 141.524H126.836C126.987 141.524 127.105 141.405 127.105 141.255V135.888C127.105 135.727 126.987 135.608 126.836 135.608M124.02 140.49C122.962 140.49 122.207 139.628 122.207 138.55C122.207 137.472 122.962 136.621 124.02 136.621C125.077 136.621 125.832 137.462 125.832 138.55C125.832 139.638 125.066 140.49 124.02 140.49ZM135.532 140.673C135.693 140.867 135.553 141.018 135.467 141.082C134.96 141.459 134.291 141.675 133.568 141.675C131.723 141.675 130.504 140.328 130.504 138.55C130.504 136.772 131.723 135.414 133.568 135.414C134.302 135.414 134.96 135.619 135.467 136.007C135.553 136.072 135.672 136.201 135.532 136.416L135.186 136.901C135.046 137.085 134.895 137.041 134.755 136.955C134.431 136.761 134.053 136.6 133.611 136.6C132.532 136.6 131.82 137.462 131.82 138.561C131.82 139.66 132.532 140.511 133.611 140.511C134.053 140.511 134.41 140.339 134.733 140.156C134.873 140.08 135.014 140.015 135.165 140.22L135.532 140.684V140.673ZM138.973 135.436C137.247 135.436 135.855 136.794 135.855 138.561C135.855 140.328 137.236 141.686 138.973 141.686C140.71 141.686 142.091 140.339 142.091 138.561C142.091 136.783 140.71 135.436 138.973 135.436ZM138.973 140.479C137.916 140.479 137.161 139.628 137.161 138.55C137.161 137.472 137.916 136.621 138.973 136.621C140.031 136.621 140.786 137.462 140.786 138.55C140.786 139.638 140.031 140.479 138.973 140.479ZM129.393 132.785C129.554 132.785 129.662 132.925 129.662 133.065V141.233C129.662 141.384 129.554 141.513 129.393 141.513H128.659C128.508 141.513 128.378 141.373 128.378 141.233V133.065C128.378 132.914 128.519 132.785 128.659 132.785H129.393Z" fill="#444445"/>
<path d="M73.4518 0.366211H86.5388L85.3089 5.40909H79.0297L78.4147 8.04905H84.9636L83.82 12.7148H77.3574L75.8038 19.3416H69.0391L73.4518 0.366211Z" fill="#444445"/>
<path d="M88.3189 0.366211H95.0836L90.6817 19.3416H83.917L88.3189 0.366211Z" fill="#444445"/>
<path d="M101.848 9.41768C104.017 9.41768 105.538 8.13541 105.538 6.31437C105.538 5.34459 104.826 4.85969 103.423 4.85969C103.024 4.85969 102.798 4.89202 102.366 4.97822L101.341 9.3638C101.557 9.39613 101.589 9.41768 101.837 9.41768M96.8529 0.484892L97.2845 0.431015C99.4531 0.172406 102.15 0 103.639 0C106.121 0 108.041 0.28016 109.508 0.883581C111.364 1.64863 112.486 3.32959 112.486 5.35536C112.486 7.0902 111.893 8.73883 110.782 10.0211C109.821 11.131 108.947 11.6697 107.156 12.2085L106.725 12.3486C106.908 12.4887 106.973 12.5533 107.07 12.6287C107.599 13.2214 109.185 16.3031 110.512 19.3418H103.067C102.107 16.6372 101.827 15.926 100.554 12.855L99.0647 19.3418H92.4834L96.8529 0.484892Z" fill="#444445"/>
<path d="M128.551 0.366211H144.961L143.818 5.86165H138.941L135.715 19.3416H128.95L132.176 5.86165H126.9L128.551 0.366211Z" fill="#444445"/>
<path d="M138.833 17.5425C138.984 17.5425 139.06 17.467 139.06 17.3377C139.06 17.2084 138.984 17.1438 138.833 17.1438C138.801 17.1438 138.79 17.1438 138.768 17.1438V17.5317C138.768 17.5317 138.812 17.5317 138.833 17.5317M138.24 16.7559C138.326 16.7559 138.337 16.7451 138.499 16.7343C138.66 16.7235 138.736 16.7128 138.801 16.7128C139.34 16.7128 139.61 16.9283 139.61 17.327C139.61 17.564 139.513 17.7149 139.286 17.8011H139.265C139.265 17.8011 139.286 17.8226 139.297 17.8442C139.351 17.8981 139.545 18.1782 139.707 18.4476H139.092C138.963 18.2105 138.93 18.1459 138.768 17.8765V18.4476H138.24V16.7774V16.7559ZM138.887 19.0403C139.685 19.0403 140.333 18.3937 140.333 17.5964C140.333 16.799 139.685 16.1525 138.887 16.1525C138.089 16.1525 137.441 16.799 137.441 17.5964C137.441 18.3937 138.078 19.0403 138.887 19.0403ZM138.887 15.9585C139.793 15.9585 140.538 16.6912 140.538 17.6071C140.538 18.523 139.804 19.2558 138.887 19.2558C137.97 19.2558 137.236 18.5338 137.236 17.6071C137.236 16.6804 137.959 15.9585 138.887 15.9585Z" fill="#444445"/>
<path d="M124.775 9.24527C123.998 8.6203 123.189 8.13541 121.549 7.37036L120.211 6.74538C119.779 6.5191 119.564 6.29282 119.564 6.03421C119.564 5.35536 120.438 4.83814 121.614 4.83814C122.498 4.83814 123.545 5.09675 125.552 5.75405L126.933 0.614196C125.433 0.204732 123.966 0 122.509 0C116.985 0 112.734 3.0171 112.734 6.91779C112.734 8.96511 114.104 10.4198 117.514 12.0145C119.132 12.758 119.402 12.952 119.402 13.4692C119.402 14.2343 118.56 14.7192 117.201 14.7192C115.993 14.7192 114.439 14.3528 112.335 13.577L110.846 18.8677C112.745 19.428 114.827 19.7513 116.769 19.7513C119.402 19.7513 121.419 19.1586 123.156 17.8979C125.077 16.5294 126.318 14.4282 126.318 12.521C126.318 11.2387 125.757 10.075 124.764 9.24527" fill="#444445"/>
<path d="M176.012 90.5779C184.859 90.2654 193.361 89.2094 201.139 87.8086V82.6795C201.139 82.227 201.01 81.8821 200.751 81.6235C200.492 81.3649 200.136 81.2356 199.694 81.2356H170.855C170.531 81.2356 170.369 81.074 170.369 80.7507V70.7296C170.369 70.4064 170.531 70.2447 170.855 70.2447H188.7C189.153 70.2447 189.498 70.1154 189.757 69.8568C190.016 69.5982 190.145 69.2426 190.145 68.8008V56.2798C190.145 55.8273 190.016 55.4825 189.757 55.2239C189.498 54.9653 189.142 54.8359 188.7 54.8359H170.855C170.531 54.8359 170.369 54.6743 170.369 54.3511V45.2997C170.369 44.9765 170.531 44.8148 170.855 44.8148H199.694C200.147 44.8148 200.492 44.6855 200.751 44.4269C201.01 44.1683 201.139 43.8127 201.139 43.3709V30.753C201.139 30.3004 201.01 29.9556 200.751 29.697C200.492 29.4384 200.136 29.3091 199.694 29.3091H153.679C153.225 29.3091 152.869 29.4384 152.621 29.697C152.362 29.9556 152.233 30.3112 152.233 30.753V88.8323C158.048 90.1469 165.115 90.9658 176.012 90.5779Z" fill="#035BA8"/>
<path d="M105.43 80.3629C105.657 80.3629 105.883 80.3629 106.121 80.3629C118.593 80.5568 126.706 81.7744 133.082 83.3153L148.662 30.9255C148.791 30.4082 148.737 30.0095 148.522 29.7186C148.295 29.4277 147.928 29.2876 147.41 29.2876H131.302C130.461 29.2876 129.954 29.7078 129.759 30.5375L120.405 71.193C120.341 71.4516 120.244 71.5809 120.114 71.5809C119.985 71.5809 119.888 71.4516 119.823 71.193L110.177 30.5375C109.983 29.7078 109.465 29.2876 108.635 29.2876H92.1382C91.2319 29.2876 90.7896 29.6755 90.7896 30.4406C90.7896 30.6345 90.8219 30.7962 90.8866 30.9255L105.441 80.3521L105.43 80.3629Z" fill="#035BA8"/>
<path d="M87.3048 82.5502V30.7422C87.3048 30.2897 87.1753 29.9449 86.9164 29.6863C86.6574 29.4276 86.3014 29.2983 85.8591 29.2983H70.6142C70.161 29.2983 69.805 29.4276 69.5569 29.6863C69.2979 29.9449 69.1685 30.3004 69.1685 30.7422V88.9831C74.9729 87.0974 80.3135 84.4252 87.3048 82.5502Z" fill="#035BA8"/>
<path d="M38.9913 88.7568C46.1875 90.7179 51.9057 91.386 56.8039 91.2352C58.6057 89.8667 60.1377 88.2719 61.3677 86.4293C63.5578 83.1536 64.6475 79.3607 64.6475 75.0613V50.9784C64.6475 46.679 63.5578 42.8861 61.3677 39.6103C59.1775 36.3346 56.0811 33.8024 52.0568 32.0029C48.0325 30.2034 43.4255 29.3091 38.2145 29.3091H13.4213C12.9682 29.3091 12.6121 29.4384 12.364 29.697C12.1051 29.9556 11.9756 30.3112 11.9756 30.753V89.5219C18.9561 86.7095 27.8462 85.7289 38.9913 88.7676V88.7568ZM30.1119 45.289C30.1119 44.9657 30.2737 44.8041 30.5974 44.8041H38.7971C41.1167 44.8041 42.9724 45.6553 44.3966 47.3578C45.8099 49.0603 46.522 51.2908 46.522 54.0493V71.9688C46.4573 74.7273 45.7128 76.9686 44.2995 78.6603C42.8861 80.3628 41.0843 81.2141 38.8942 81.2141H30.5974C30.2737 81.2141 30.1119 81.0524 30.1119 80.7292V45.2782V45.289Z" fill="#035BA8"/>
<path d="M35.0643 91.5478C66.4927 100.103 68.7152 82.3133 99.6365 82.7766C137.344 83.3477 135.844 96.2458 168.772 94.6295C186.844 93.7459 203.017 89.0802 214.011 85.0071C203.265 87.6579 190.059 90.0392 176.012 90.5241C141.498 91.7417 145.328 80.9125 106.121 80.3198C73.9802 79.8349 71.6714 97.6035 38.9915 88.7031C20.0136 83.5309 7.5631 89.9961 0 97.3341C7.41205 91.44 18.7189 87.076 35.0643 91.537V91.5478Z" fill="url(#paint0_radial_3285_31)"/>
<path d="M195.421 95.8148C195.227 95.7285 195.065 95.61 194.957 95.4484C194.849 95.2868 194.795 95.1036 194.795 94.8988V94.7911C194.795 94.7911 194.795 94.7588 194.817 94.748C194.828 94.7372 194.839 94.7264 194.86 94.7264H195.432C195.432 94.7264 195.464 94.7264 195.475 94.748C195.486 94.7588 195.497 94.7695 195.497 94.7911V94.8665C195.497 94.9958 195.561 95.1144 195.68 95.2006C195.799 95.2868 195.971 95.3406 196.176 95.3406C196.349 95.3406 196.478 95.3083 196.565 95.2329C196.651 95.1575 196.694 95.0713 196.694 94.9527C196.694 94.8773 196.673 94.8019 196.619 94.748C196.565 94.6941 196.489 94.6402 196.403 94.6079C196.317 94.5756 196.166 94.5109 195.971 94.4355C195.745 94.3601 195.561 94.2846 195.41 94.1984C195.259 94.123 195.13 94.0153 195.022 93.8752C194.914 93.7351 194.86 93.5627 194.86 93.3687C194.86 93.1748 194.914 92.9916 195.011 92.8515C195.119 92.7007 195.259 92.5929 195.443 92.5067C195.626 92.4313 195.831 92.3882 196.079 92.3882C196.327 92.3882 196.554 92.4313 196.759 92.5175C196.964 92.6037 197.115 92.733 197.223 92.8946C197.331 93.0563 197.385 93.2394 197.385 93.455V93.5304C197.385 93.5304 197.385 93.5627 197.363 93.5735C197.352 93.5842 197.342 93.595 197.32 93.595H196.748C196.748 93.595 196.716 93.595 196.705 93.5735C196.694 93.5627 196.683 93.5519 196.683 93.5304V93.4873C196.683 93.3472 196.63 93.2287 196.511 93.1317C196.392 93.0347 196.241 92.9808 196.036 92.9808C195.885 92.9808 195.756 93.0132 195.669 93.0778C195.583 93.1425 195.54 93.2394 195.54 93.3472C195.54 93.4334 195.561 93.498 195.615 93.5519C195.669 93.6058 195.745 93.6597 195.842 93.7028C195.939 93.7459 196.101 93.8105 196.317 93.886C196.554 93.9722 196.737 94.0476 196.867 94.1122C196.996 94.1769 197.126 94.2739 197.234 94.4032C197.342 94.5325 197.396 94.7049 197.396 94.9096C197.396 95.2221 197.277 95.4699 197.05 95.6531C196.824 95.8363 196.511 95.9225 196.122 95.9225C195.853 95.9225 195.626 95.8794 195.421 95.7932V95.8148Z" fill="#035BA8"/>
<path d="M200.481 92.4097H201.064C201.064 92.4097 201.096 92.4097 201.107 92.4313C201.118 92.442 201.128 92.4528 201.128 92.4744V95.8363C201.128 95.8363 201.128 95.8686 201.107 95.8794C201.096 95.8902 201.085 95.9009 201.064 95.9009H200.481C200.481 95.9009 200.449 95.9009 200.438 95.8794C200.427 95.8686 200.416 95.8578 200.416 95.8363V93.6381V93.6165C200.416 93.6165 200.406 93.6165 200.395 93.6273L199.866 94.457C199.866 94.457 199.823 94.5001 199.801 94.5001H199.51C199.51 94.5001 199.456 94.4894 199.445 94.457L198.917 93.6273C198.917 93.6273 198.906 93.6165 198.895 93.6165C198.895 93.6165 198.895 93.6165 198.895 93.6381V95.8255C198.895 95.8255 198.895 95.8578 198.874 95.8686C198.863 95.8794 198.852 95.8901 198.83 95.8901H198.248C198.248 95.8901 198.215 95.8901 198.205 95.8686C198.194 95.8578 198.183 95.847 198.183 95.8255V92.4636C198.183 92.4636 198.183 92.4312 198.205 92.4205C198.215 92.4097 198.226 92.3989 198.248 92.3989H198.83C198.83 92.3989 198.884 92.4097 198.895 92.442L199.64 93.6058C199.64 93.6058 199.661 93.6273 199.672 93.6058L200.427 92.442C200.427 92.442 200.47 92.3989 200.492 92.3989L200.481 92.4097Z" fill="#035BA8"/>
<path d="M27.21 102.722L21.2113 115.081C21.0171 115.48 20.4453 115.49 20.2403 115.092L13.9611 102.883C13.864 102.7 13.6806 102.581 13.4756 102.592L8.84712 102.646C8.43714 102.646 8.17821 103.088 8.37241 103.443L17.187 119.693C19.593 119.24 22.096 119.014 24.6638 119.035L32.8095 103.153C32.9929 102.786 32.7232 102.355 32.324 102.366L27.6955 102.42C27.4905 102.42 27.3071 102.538 27.21 102.722Z" fill="#1FBAAE"/>
<path d="M49.9745 116.288C51.1289 110.997 47.8922 106.644 41.7749 105.308C35.6575 103.972 30.8995 106.568 29.7343 111.859C29.0654 114.941 29.8854 117.689 31.8921 119.725C32.6042 119.865 33.3271 120.016 34.0391 120.199C38.4087 121.288 42.2064 121.891 45.5942 122.15C47.8059 121.029 49.3703 119.014 49.9745 116.277V116.288ZM45.1194 115.232C44.5045 118.033 42.0122 119.423 38.8295 118.723C35.6359 118.023 33.9528 115.727 34.5678 112.926C35.1828 110.124 37.675 108.734 40.8578 109.435C44.0513 110.135 45.7344 112.43 45.1194 115.232Z" fill="#1FBAAE"/>
<path d="M57.9479 118.066L54.3767 106.752C54.2904 106.461 53.9775 106.31 53.697 106.396L50.0071 107.56C49.7158 107.646 49.5648 107.959 49.6511 108.239L53.9991 122.02C59.8036 121.352 64.3997 119.542 69.2116 117.592L68.6506 115.825C68.5642 115.534 68.2514 115.383 67.9708 115.469L58.6384 118.411C58.3471 118.497 58.045 118.346 57.9586 118.055L57.9479 118.066Z" fill="#1FBAAE"/>
<path d="M84.6397 104.208L82.3093 96.8812C82.2229 96.5902 81.9101 96.4394 81.6296 96.5256L77.9397 97.7001C77.6484 97.7863 77.4974 98.0988 77.5837 98.379L80.1407 106.417C80.9714 109.036 79.7954 110.9 77.1953 111.73C74.5951 112.559 72.556 111.708 71.7145 109.1L69.1575 101.062C69.0711 100.771 68.7583 100.62 68.4778 100.706L64.7879 101.881C64.4966 101.967 64.3456 102.28 64.4319 102.56L66.7623 109.887C68.003 113.777 69.8587 115.738 72.1892 116.417C75.674 115.038 79.4178 113.702 83.8952 112.764C85.4704 110.868 85.8912 108.174 84.6289 104.208H84.6397Z" fill="#1FBAAE"/>
<path d="M102.895 96.1164L102.863 103.864C102.863 104.327 102.323 104.575 101.967 104.273L91.8255 95.6531C91.7284 95.5669 91.5989 95.5238 91.4803 95.5238H88.3191C88.017 95.513 87.7796 95.7501 87.7688 96.0518L87.7041 112.086C89.2685 111.859 90.9084 111.687 92.667 111.579L92.6886 104.403C92.6886 103.939 93.2281 103.692 93.5841 103.993L102.463 111.558C104.308 111.633 106.078 111.741 107.782 111.881L107.836 96.1272C107.836 95.8255 107.599 95.5884 107.297 95.5777H103.424C103.122 95.5669 102.873 95.804 102.873 96.1057L102.895 96.1164Z" fill="#1FBAAE"/>
<path d="M127.753 102.42L128.271 99.3276C128.325 99.0367 128.12 98.7565 127.828 98.7026L110.426 95.7933C110.134 95.7394 109.854 95.9441 109.8 96.2351L109.282 99.3276C109.228 99.6185 109.433 99.8987 109.724 99.9526L115.432 100.912C115.723 100.965 115.928 101.246 115.874 101.537L114.029 112.549C115.734 112.775 117.363 113.045 118.927 113.325L120.772 102.355C120.826 102.065 121.107 101.86 121.398 101.914L127.127 102.873C127.418 102.927 127.699 102.722 127.753 102.431V102.42Z" fill="#1FBAAE"/>
<path d="M130.482 112.786L131.043 111.224C131.14 110.943 131.453 110.792 131.734 110.9L140.969 114.208C141.25 114.305 141.562 114.165 141.66 113.885L142.641 111.148C142.738 110.868 142.598 110.555 142.318 110.458L133.082 107.15C132.802 107.053 132.651 106.741 132.759 106.461L133.061 105.61C133.158 105.329 133.471 105.179 133.751 105.286L144.346 109.079C144.627 109.176 144.939 109.036 145.037 108.756L146.094 105.814C146.191 105.534 146.051 105.222 145.77 105.125L130.504 99.6508C130.223 99.5538 129.91 99.6939 129.813 99.974L124.581 114.532C131 116.062 136.243 117.915 141.152 119.564L141.714 118.001C141.811 117.721 141.67 117.409 141.39 117.312L130.795 113.519C130.515 113.422 130.363 113.109 130.471 112.829L130.482 112.786Z" fill="#1FBAAE"/>
<path d="M150.043 119.068L150.237 117.419C150.269 117.118 150.539 116.913 150.841 116.945L160.583 118.087C160.885 118.12 161.155 117.904 161.188 117.613L161.522 114.726C161.554 114.424 161.339 114.154 161.047 114.122L151.305 112.98C151.003 112.948 150.798 112.678 150.83 112.377L150.938 111.482C150.97 111.18 151.24 110.976 151.542 111.008L162.72 112.323C163.022 112.355 163.291 112.139 163.324 111.849L163.691 108.745C163.723 108.444 163.507 108.174 163.216 108.142L147.108 106.256C146.806 106.224 146.536 106.439 146.504 106.73L144.853 120.749C150.28 122.441 155.567 123.68 161.932 123.658L162.169 121.6C162.202 121.299 161.986 121.029 161.695 120.997L150.517 119.682C150.215 119.65 150.01 119.381 150.043 119.079V119.068Z" fill="#1FBAAE"/>
<path d="M205.52 112.344C203.427 104.381 190.965 112.387 190.145 109.284C189.919 108.433 191.462 107.646 194.073 106.956C196.489 106.321 197.946 106.547 198.453 107.366C198.582 107.571 198.82 107.689 199.057 107.624L202.898 106.622C203.211 106.536 203.383 106.191 203.265 105.89C202.078 102.862 198.183 101.526 193.069 102.862C187.729 104.263 184.438 107.28 185.333 110.695C187.513 118.971 199.845 110.383 200.729 113.756C200.956 114.607 199.499 115.372 196.414 116.18C193.738 116.881 192.26 116.665 191.742 115.846C191.613 115.641 191.375 115.534 191.138 115.587L187.038 116.665C186.714 116.751 186.553 117.096 186.671 117.398C187.157 118.615 188.106 119.553 189.433 120.145C195.712 118.852 201.139 117.193 205.541 114.801C205.746 114.036 205.735 113.228 205.509 112.355L205.52 112.344Z" fill="#1FBAAE"/>
<path d="M180.176 115.921C179.842 115.641 179.96 115.081 180.392 114.984C183.025 114.37 184.567 112.678 184.298 110.275C184.006 107.667 181.838 105.986 178.299 106.385L165.05 107.861C164.748 107.894 164.532 108.163 164.575 108.465L166.258 123.453C166.744 123.41 167.24 123.367 167.737 123.302C168.902 123.173 170.045 123.033 171.178 122.904L169.894 111.87C169.862 111.568 170.078 111.299 170.369 111.266L177.878 110.426C178.806 110.318 179.335 110.631 179.432 111.536C179.529 112.441 179.087 112.829 178.159 112.936L172.225 113.605C171.761 113.658 171.567 114.24 171.923 114.553L180.036 121.761C182.075 121.471 184.049 121.158 185.959 120.813L180.165 115.932L180.176 115.921Z" fill="#1FBAAE"/>
</g>
<defs>
<radialGradient id="paint0_radial_3285_31" cx="0" cy="0" r="1" gradientUnits="userSpaceOnUse" gradientTransform="translate(107.005 88.8324) scale(75.9007 75.8048)">
<stop stop-color="#035BA8" stop-opacity="0"/>
<stop offset="0.12" stop-color="#035BA8" stop-opacity="0.25"/>
<stop offset="0.25" stop-color="#035BA8" stop-opacity="0.48"/>
<stop offset="0.38" stop-color="#035BA8" stop-opacity="0.67"/>
<stop offset="0.52" stop-color="#035BA8" stop-opacity="0.82"/>
<stop offset="0.66" stop-color="#035BA8" stop-opacity="0.92"/>
<stop offset="0.81" stop-color="#035BA8" stop-opacity="0.98"/>
<stop offset="1" stop-color="#035BA8"/>
</radialGradient>
<clipPath id="clip0_3285_31">
<rect width="214" height="143" fill="white"/>
</clipPath>
</defs>
</svg>
